<svg width="192" height="50" viewBox="0 0 192 50" fill="none" xmlns="http://www.w3.org/2000/svg">
<g clip-path="url(#clip0_101_12)">
<path d="M37.5 0H12.5C5.59644 0 0 5.59644 0 12.5V37.5C0 44.4036 5.59644 50 12.5 50H37.5C44.4036 50 50 44.4036 50 37.5V12.5C50 5.59644 44.4036 0 37.5 0Z" fill="white"/>
<g style="mix-blend-mode:darken">
<path d="M21.9439 22.544C27.9028 14.5772 40.1625 15.6664 44.6234 24.5591C49.0843 33.4518 42.6273 43.9301 32.6784 43.9431L5.91211 43.9781L21.9439 22.544Z" fill="#1D2B53"/>
</g>
<g style="mix-blend-mode:darken">
<path d="M28.0042 27.4409C22.0259 35.3931 9.76877 34.2739 5.32964 25.3704C0.890494 16.4668 7.37309 6.00434 17.3219 6.01563L44.0883 6.04603L28.0042 27.4409Z" fill="#FF004D"/>
</g>
</g>
<path d="M51.2727 17.2614V13.7273H69.8409V17.2614H62.6477V37H58.4659V17.2614H51.2727ZM78.4347 37.3409C76.6847 37.3409 75.1733 36.9773 73.9006 36.25C72.6354 35.5152 71.6619 34.4773 70.9801 33.1364C70.2983 31.7879 69.9574 30.2008 69.9574 28.375C69.9574 26.5795 70.2983 25.0038 70.9801 23.6477C71.6695 22.2841 72.6316 21.2235 73.8665 20.4659C75.1013 19.7008 76.5521 19.3182 78.2188 19.3182C79.2945 19.3182 80.3097 19.4924 81.2642 19.8409C82.2263 20.1818 83.0748 20.7121 83.8097 21.4318C84.5521 22.1515 85.1354 23.0682 85.5597 24.1818C85.9839 25.2879 86.196 26.6061 86.196 28.1364V29.3977H71.8892V26.625H82.2528C82.2453 25.8371 82.0748 25.1364 81.7415 24.5227C81.4081 23.9015 80.9422 23.4129 80.3438 23.0568C79.7528 22.7008 79.0634 22.5227 78.2756 22.5227C77.4347 22.5227 76.696 22.7273 76.0597 23.1364C75.4233 23.5379 74.9271 24.0682 74.571 24.7273C74.2225 25.3788 74.0445 26.0947 74.0369 26.875V29.2955C74.0369 30.3106 74.2225 31.1818 74.5938 31.9091C74.965 32.6288 75.4839 33.1818 76.1506 33.5682C76.8172 33.947 77.5975 34.1364 78.4915 34.1364C79.09 34.1364 79.6316 34.053 80.1165 33.8864C80.6013 33.7121 81.0218 33.4583 81.3778 33.125C81.7339 32.7917 82.0028 32.3788 82.1847 31.8864L86.0256 32.3182C85.7831 33.3333 85.321 34.2197 84.6392 34.9773C83.965 35.7273 83.1013 36.3106 82.0483 36.7273C80.9953 37.1364 79.7907 37.3409 78.4347 37.3409ZM97.2898 37.3409C95.5473 37.3409 94.0511 36.9583 92.8011 36.1932C91.5587 35.428 90.6004 34.3712 89.9261 33.0227C89.2595 31.6667 88.9261 30.1061 88.9261 28.3409C88.9261 26.5682 89.267 25.0038 89.9489 23.6477C90.6307 22.2841 91.5928 21.2235 92.8352 20.4659C94.0852 19.7008 95.5625 19.3182 97.267 19.3182C98.6837 19.3182 99.9375 19.5795 101.028 20.1023C102.127 20.6174 103.002 21.3485 103.653 22.2955C104.305 23.2348 104.676 24.3333 104.767 25.5909H100.835C100.676 24.75 100.297 24.0492 99.6989 23.4886C99.108 22.9205 98.3163 22.6364 97.3239 22.6364C96.483 22.6364 95.7443 22.8636 95.108 23.3182C94.4716 23.7652 93.9754 24.4091 93.6193 25.25C93.2708 26.0909 93.0966 27.0985 93.0966 28.2727C93.0966 29.4621 93.2708 30.4848 93.6193 31.3409C93.9678 32.1894 94.4564 32.8447 95.0852 33.3068C95.7216 33.7614 96.4678 33.9886 97.3239 33.9886C97.9299 33.9886 98.4716 33.875 98.9489 33.6477C99.4337 33.4129 99.839 33.0758 100.165 32.6364C100.491 32.197 100.714 31.6629 100.835 31.0341H104.767C104.669 32.2689 104.305 33.3636 103.676 34.3182C103.047 35.2652 102.191 36.0076 101.108 36.5455C100.025 37.0758 98.7519 37.3409 97.2898 37.3409ZM112.259 26.7727V37H108.145V13.7273H112.168V22.5114H112.372C112.781 21.5265 113.414 20.75 114.27 20.1818C115.134 19.6061 116.232 19.3182 117.565 19.3182C118.777 19.3182 119.834 19.572 120.736 20.0795C121.637 20.5871 122.334 21.3295 122.827 22.3068C123.327 23.2841 123.577 24.4773 123.577 25.8864V37H119.463V26.5227C119.463 25.3485 119.16 24.4356 118.554 23.7841C117.955 23.125 117.115 22.7955 116.031 22.7955C115.304 22.7955 114.652 22.9545 114.077 23.2727C113.509 23.5833 113.062 24.0341 112.736 24.625C112.418 25.2159 112.259 25.9318 112.259 26.7727ZM127.77 37V19.5455H131.884V37H127.77ZM129.838 17.0682C129.187 17.0682 128.626 16.8523 128.156 16.4205C127.687 15.9811 127.452 15.4545 127.452 14.8409C127.452 14.2197 127.687 13.6932 128.156 13.2614C128.626 12.822 129.187 12.6023 129.838 12.6023C130.497 12.6023 131.058 12.822 131.52 13.2614C131.99 13.6932 132.224 14.2197 132.224 14.8409C132.224 15.4545 131.99 15.9811 131.52 16.4205C131.058 16.8523 130.497 17.0682 129.838 17.0682ZM136.114 37V19.5455H140.227V37H136.114ZM138.182 17.0682C137.53 17.0682 136.97 16.8523 136.5 16.4205C136.03 15.9811 135.795 15.4545 135.795 14.8409C135.795 14.2197 136.03 13.6932 136.5 13.2614C136.97 12.822 137.53 12.6023 138.182 12.6023C138.841 12.6023 139.402 12.822 139.864 13.2614C140.333 13.6932 140.568 14.2197 140.568 14.8409C140.568 15.4545 140.333 15.9811 139.864 16.4205C139.402 16.8523 138.841 17.0682 138.182 17.0682ZM152.185 37.3409C150.435 37.3409 148.923 36.9773 147.651 36.25C146.385 35.5152 145.412 34.4773 144.73 33.1364C144.048 31.7879 143.707 30.2008 143.707 28.375C143.707 26.5795 144.048 25.0038 144.73 23.6477C145.42 22.2841 146.382 21.2235 147.616 20.4659C148.851 19.7008 150.302 19.3182 151.969 19.3182C153.045 19.3182 154.06 19.4924 155.014 19.8409C155.976 20.1818 156.825 20.7121 157.56 21.4318C158.302 22.1515 158.885 23.0682 159.31 24.1818C159.734 25.2879 159.946 26.6061 159.946 28.1364V29.3977H145.639V26.625H156.003C155.995 25.8371 155.825 25.1364 155.491 24.5227C155.158 23.9015 154.692 23.4129 154.094 23.0568C153.503 22.7008 152.813 22.5227 152.026 22.5227C151.185 22.5227 150.446 22.7273 149.81 23.1364C149.173 23.5379 148.677 24.0682 148.321 24.7273C147.973 25.3788 147.795 26.0947 147.787 26.875V29.2955C147.787 30.3106 147.973 31.1818 148.344 31.9091C148.715 32.6288 149.234 33.1818 149.901 33.5682C150.567 33.947 151.348 34.1364 152.241 34.1364C152.84 34.1364 153.382 34.053 153.866 33.8864C154.351 33.7121 154.772 33.4583 155.128 33.125C155.484 32.7917 155.753 32.3788 155.935 31.8864L159.776 32.3182C159.533 33.3333 159.071 34.2197 158.389 34.9773C157.715 35.7273 156.851 36.3106 155.798 36.7273C154.745 37.1364 153.541 37.3409 152.185 37.3409ZM172.267 19.5455V22.7273H161.949V19.5455H172.267ZM164.528 37V17.8977C164.528 16.7235 164.771 15.7462 165.256 14.9659C165.748 14.1856 166.407 13.6023 167.233 13.2159C168.059 12.8295 168.975 12.6364 169.983 12.6364C170.695 12.6364 171.328 12.6932 171.881 12.8068C172.434 12.9205 172.843 13.0227 173.108 13.1136L172.29 16.2955C172.116 16.2424 171.896 16.1894 171.631 16.1364C171.366 16.0758 171.07 16.0455 170.744 16.0455C169.979 16.0455 169.438 16.2311 169.119 16.6023C168.809 16.9659 168.653 17.4886 168.653 18.1705V37H164.528ZM178.045 43.5455C177.485 43.5455 176.966 43.5 176.489 43.4091C176.019 43.3258 175.644 43.2273 175.364 43.1136L176.318 39.9091C176.917 40.0833 177.451 40.1667 177.92 40.1591C178.39 40.1515 178.803 40.0038 179.159 39.7159C179.523 39.4356 179.83 38.9659 180.08 38.3068L180.432 37.3636L174.102 19.5455H178.466L182.489 32.7273H182.67L186.705 19.5455H191.08L184.091 39.1136C183.765 40.0379 183.333 40.8295 182.795 41.4886C182.258 42.1553 181.598 42.6629 180.818 43.0114C180.045 43.3674 179.121 43.5455 178.045 43.5455Z" fill="#1D2B53"/>
<defs>
<clipPath id="clip0_101_12">
<rect width="50" height="50" fill="white"/>
</clipPath>
</defs>
</svg>
